<svg width="22" height="25" viewBox="0 0 22 25" fill="none" xmlns="http://www.w3.org/2000/svg">
<path fill-rule="evenodd" clip-rule="evenodd" d="M22 18.2542C21.5894 19.5062 20.9419 20.7582 20.0574 22.0102C18.6992 23.9734 17.3463 24.9549 15.9986 24.9549C15.4827 24.9549 14.7456 24.7947 13.7875 24.4742C12.882 24.1536 12.0871 23.9934 11.4027 23.9934C10.7605 23.9934 10.0129 24.1587 9.16009 24.4892C8.30725 24.8297 7.61235 25 7.07538 25C5.47499 25 3.8904 23.7029 2.32161 21.1088C0.773869 18.4946 0 15.9756 0 13.5517C0 11.268 0.594879 9.39503 1.78464 7.93269C2.96387 6.49038 4.45896 5.76923 6.26992 5.76923C7.028 5.76923 7.9598 5.91947 9.06533 6.21995C10.1603 6.52043 10.8868 6.67067 11.2448 6.67067C11.7186 6.67067 12.4714 6.5004 13.5032 6.15986C14.5772 5.81931 15.4879 5.64904 16.2355 5.64904C17.4884 5.64904 18.6097 5.97456 19.5994 6.6256C20.1469 6.98618 20.6944 7.48698 21.2419 8.128C20.4101 8.79908 19.81 9.39002 19.4415 9.90084C18.7571 10.8423 18.4149 11.879 18.4149 13.0108C18.4149 14.2528 18.7782 15.3696 19.5047 16.3612C20.2312 17.3528 21.0629 17.9838 22 18.2542ZM16.0617 0.63101C16.0617 1.24199 15.9091 1.92308 15.6037 2.67428C15.2879 3.42548 14.7983 4.11659 14.135 4.7476C13.5664 5.28846 12.9978 5.64904 12.4293 5.82933C12.0397 5.9395 11.4922 6.02464 10.7868 6.08474C10.8184 4.59235 11.229 3.30529 12.0187 2.22356C12.7978 1.15184 14.1139 0.410657 15.967 0C15.9775 0.0300481 15.9907 0.0851362 16.0065 0.165264C16.0223 0.245393 16.0354 0.300481 16.0459 0.330529C16.0459 0.370593 16.0486 0.420673 16.0538 0.480769C16.0591 0.540865 16.0617 0.590945 16.0617 0.63101Z" fill="white"/>
</svg>
