<svg width="894" height="980" viewBox="0 0 894 980" fill="none" xmlns="http://www.w3.org/2000/svg">
<path d="M498.692 -115.121C806.335 -427.442 1324.92 69.4968 1388.15 100.602C1388.2 100.625 1388.23 100.646 1388.27 100.676C1429.47 129.606 1482.32 65.9031 1629.62 593.644C1777 1121.67 1120.15 986.355 824.877 887.937C529.605 789.519 467.005 909.775 177.327 743.413C-112.351 577.05 190.958 197.292 498.692 -115.121Z" fill="#D1F5FF"/>
<ellipse cx="742.765" cy="426.724" rx="569.855" ry="466.134" transform="rotate(1.99858 742.765 426.724)" fill="#5AD5F9"/>
<path d="M422.183 71.6538C636.804 -223.158 1123.34 122.94 1179.12 140.894C1179.17 140.91 1179.2 140.926 1179.25 140.95C1216.62 159.739 1252.28 100.87 1437.6 517.643C1623.05 934.687 1066.97 903.32 812.424 858.25C557.874 813.181 521.112 919.89 262.873 818.161C4.63406 716.432 207.486 366.572 422.183 71.6538Z" stroke="black" stroke-width="2" stroke-linecap="round"/>
<path d="M421.396 -49.0956C713.963 -310.697 1193.91 132.593 1252.82 161.172C1252.86 161.194 1252.89 161.213 1252.94 161.242C1291.2 187.341 1341.59 133.726 1472.93 593.666C1604.33 1053.86 990.024 919.312 714.363 826.35C438.703 733.387 378.437 835.613 108.901 684.093C-160.635 532.573 128.74 212.585 421.396 -49.0956Z" stroke="black" stroke-width="2" stroke-linecap="round"/>
</svg>
