<svg width="201" height="28" viewBox="0 0 201 28" fill="none" xmlns="http://www.w3.org/2000/svg">
<path d="M26.2503 9.4502L23.3337 11.0544L20.417 13.8252V23.3335H24.5003C25.4669 23.3335 26.2503 22.5501 26.2503 21.5835V9.4502Z" fill="#4CAF50"/>
<path d="M1.75 9.4502L3.85817 10.4477L7.58333 13.8252V23.3335H3.5C2.53342 23.3335 1.75 22.5501 1.75 21.5835V9.4502Z" fill="#1E88E5"/>
<path d="M20.4167 6.5332L14 11.3457L7.58333 6.5332L7 9.91654L7.58333 13.8249L14 18.6374L20.4167 13.8249L21 9.91654L20.4167 6.5332Z" fill="#E53935"/>
<path d="M1.75 7.17367V9.44984L7.58333 13.8248V6.53317L5.761 5.16759C5.327 4.84209 4.79967 4.6665 4.25717 4.6665C2.87233 4.6665 1.75 5.78884 1.75 7.17367Z" fill="#C62828"/>
<path d="M26.2503 7.17367V9.44984L20.417 13.8248V6.53317L22.2393 5.16759C22.6733 4.84209 23.2007 4.6665 23.7432 4.6665C25.128 4.6665 26.2503 5.78884 26.2503 7.17367Z" fill="#FBC02D"/>
</svg>
