<svg width="179" height="94" viewBox="0 0 179 94" fill="none" xmlns="http://www.w3.org/2000/svg">
<path fill-rule="evenodd" clip-rule="evenodd" d="M15.0464 67.3818C15.0464 65.5012 16.4969 63.9766 18.2862 63.9766L30.1655 63.9766C31.9548 63.9766 33.4053 65.5012 33.4053 67.3818C33.4053 69.2625 31.9548 70.7871 30.1655 70.7871L18.2862 70.7871C16.4969 70.7871 15.0464 69.2625 15.0464 67.3818Z" fill="#5AD5F9"/>
<path fill-rule="evenodd" clip-rule="evenodd" d="M40.1245 6.94923C40.1245 3.18786 42.5021 0.138672 45.435 0.138672H64.9067C67.8396 0.138672 70.2172 3.18786 70.2172 6.94923C70.2172 10.7106 67.8396 13.7598 64.9067 13.7598H45.435C42.5021 13.7598 40.1245 10.7106 40.1245 6.94923Z" fill="#5AD5F9"/>
<path fill-rule="evenodd" clip-rule="evenodd" d="M48.4436 67.5801C48.4695 68.0366 48.4826 68.4966 48.4826 68.9595C48.4826 69.697 47.8661 70.2739 47.1243 70.2739H40.9355C40.2233 70.2739 39.6676 69.6676 39.6676 68.9595C39.6676 60.4904 32.761 53.6249 24.2413 53.6249C15.7216 53.6249 8.81502 60.4904 8.81502 68.9595C8.81502 77.4286 15.7216 84.2942 24.2413 84.2942C28.0376 84.2942 31.5137 82.931 34.2011 80.6702C35.3379 79.7138 36.7241 79.0366 38.2134 79.0366C41.9751 79.0366 44.3542 82.9221 41.7526 85.6229C37.3398 90.2041 31.1257 93.0568 24.2413 93.0568C10.8532 93.0568 0 82.2681 0 68.9595C0 55.651 10.8532 44.8622 24.2413 44.8622C30.1783 44.8622 35.6168 46.9838 39.8314 50.5059L39.8314 0H48.4436L48.4436 67.5801Z" fill="black"/>
<path d="M100.27 27.7246H77.4178V42.8219H99.4463V48.7923H77.4178V64.5073H101.162L100.613 70.4776H70.624V21.7542H100.27V27.7246Z" fill="black"/>
<path d="M117.135 71.0952C114.07 71.0952 111.759 70.2717 110.204 68.6247C108.694 66.932 107.939 64.6445 107.939 61.7623V21.4937H114.527V61.076C114.527 63.8668 115.785 65.2621 118.301 65.2621C118.942 65.2621 119.537 65.1706 120.086 64.9876C120.68 64.8046 121.184 64.5988 121.595 64.37L123.242 69.2424C122.602 69.7914 121.71 70.226 120.566 70.5462C119.468 70.9122 118.324 71.0952 117.135 71.0952Z" fill="black"/>
<path d="M142.624 71.0952C137.226 71.0952 132.971 69.5626 129.86 66.4974C126.749 63.4322 125.194 59.2003 125.194 53.8019C125.194 50.2334 125.903 47.0767 127.321 44.3317C128.785 41.5867 130.775 39.4365 133.292 37.881C135.808 36.3255 138.667 35.5478 141.87 35.5478C146.811 35.5478 150.562 37.2634 153.124 40.6946C155.686 44.0801 156.578 48.9981 155.8 55.4488H131.85C131.988 58.5598 133.017 60.9845 134.939 62.723C136.906 64.4158 139.628 65.2621 143.105 65.2621C144.798 65.2621 146.422 64.8961 147.977 64.1642C149.578 63.3864 150.951 62.2427 152.095 60.7329L156.075 64.5759C154.474 66.6804 152.575 68.3045 150.379 69.4482C148.183 70.5462 145.598 71.0952 142.624 71.0952ZM141.938 40.626C139.147 40.626 136.883 41.5638 135.144 43.4396C133.406 45.3153 132.354 47.6714 131.988 50.5079H150.105C150.242 47.0309 149.533 44.5147 147.977 42.9592C146.467 41.4037 144.454 40.626 141.938 40.626Z" fill="black"/>
<path d="M172.892 71.0952C169.827 71.0952 167.517 70.2717 165.961 68.6247C164.451 66.932 163.696 64.6445 163.696 61.7623V21.4937H170.284V61.076C170.284 63.8668 171.542 65.2621 174.059 65.2621C174.699 65.2621 175.294 65.1706 175.843 64.9876C176.438 64.8046 176.941 64.5988 177.353 64.37L179 69.2424C178.359 69.7914 177.467 70.226 176.323 70.5462C175.225 70.9122 174.082 71.0952 172.892 71.0952Z" fill="black"/>
</svg>
